<mxfile host="www.draw.io" modified="2019-11-15T14:29:23.722Z" agent="Mozilla/5.0 (X11; Ubuntu; Linux x86_64; rv:68.0) Gecko/20100101 Firefox/68.0" etag="sJKJJMIZmwVJ3AxpboxT" version="12.2.6" type="github" pages="1">
  <diagram id="IxQfPc7F_UO6F6g6hVzl" name="Page-1">
    <mxGraphModel dx="2165" dy="1863" grid="1" gridSize="10" guides="1" tooltips="1" connect="1" arrows="1" fold="1" page="1" pageScale="1" pageWidth="850" pageHeight="1100" math="0" shadow="0">
      <root>
        <mxCell id="0"/>
        <mxCell id="1" parent="0"/>
        <mxCell id="W3dB_EEzSe2LfcszyW_G-15" style="edgeStyle=orthogonalEdgeStyle;rounded=0;orthogonalLoop=1;jettySize=auto;html=1;exitX=0.5;exitY=1;exitDx=0;exitDy=0;entryX=0.5;entryY=0;entryDx=0;entryDy=0;" parent="1" source="W3dB_EEzSe2LfcszyW_G-1" target="W3dB_EEzSe2LfcszyW_G-2" edge="1">
          <mxGeometry relative="1" as="geometry"/>
        </mxCell>
        <mxCell id="W3dB_EEzSe2LfcszyW_G-1" value="Start" style="ellipse;whiteSpace=wrap;html=1;" parent="1" vertex="1">
          <mxGeometry x="40" width="120" height="80" as="geometry"/>
        </mxCell>
        <mxCell id="W3dB_EEzSe2LfcszyW_G-11" style="edgeStyle=orthogonalEdgeStyle;rounded=0;orthogonalLoop=1;jettySize=auto;html=1;exitX=1;exitY=0.5;exitDx=0;exitDy=0;entryX=0;entryY=0.5;entryDx=0;entryDy=0;" parent="1" source="W3dB_EEzSe2LfcszyW_G-2" target="W3dB_EEzSe2LfcszyW_G-3" edge="1">
          <mxGeometry relative="1" as="geometry"/>
        </mxCell>
        <mxCell id="W3dB_EEzSe2LfcszyW_G-12" style="edgeStyle=orthogonalEdgeStyle;rounded=0;orthogonalLoop=1;jettySize=auto;html=1;exitX=1;exitY=0.5;exitDx=0;exitDy=0;" parent="1" source="W3dB_EEzSe2LfcszyW_G-2" target="W3dB_EEzSe2LfcszyW_G-4" edge="1">
          <mxGeometry relative="1" as="geometry"/>
        </mxCell>
        <mxCell id="W3dB_EEzSe2LfcszyW_G-17" style="edgeStyle=orthogonalEdgeStyle;rounded=0;orthogonalLoop=1;jettySize=auto;html=1;exitX=0.5;exitY=1;exitDx=0;exitDy=0;entryX=0.5;entryY=0;entryDx=0;entryDy=0;" parent="1" source="W3dB_EEzSe2LfcszyW_G-2" target="W3dB_EEzSe2LfcszyW_G-16" edge="1">
          <mxGeometry relative="1" as="geometry"/>
        </mxCell>
        <mxCell id="W3dB_EEzSe2LfcszyW_G-2" value="Admin / User?" style="rhombus;whiteSpace=wrap;html=1;" parent="1" vertex="1">
          <mxGeometry x="60" y="100" width="80" height="80" as="geometry"/>
        </mxCell>
        <mxCell id="W3dB_EEzSe2LfcszyW_G-6" style="edgeStyle=orthogonalEdgeStyle;rounded=0;orthogonalLoop=1;jettySize=auto;html=1;exitX=1;exitY=0.5;exitDx=0;exitDy=0;entryX=0;entryY=0.5;entryDx=0;entryDy=0;" parent="1" source="W3dB_EEzSe2LfcszyW_G-3" target="W3dB_EEzSe2LfcszyW_G-5" edge="1">
          <mxGeometry relative="1" as="geometry"/>
        </mxCell>
        <mxCell id="W3dB_EEzSe2LfcszyW_G-3" value="Tab 1 Masukkan NIP" style="rounded=0;whiteSpace=wrap;html=1;" parent="1" vertex="1">
          <mxGeometry x="240" y="10" width="120" height="60" as="geometry"/>
        </mxCell>
        <mxCell id="W3dB_EEzSe2LfcszyW_G-13" style="edgeStyle=orthogonalEdgeStyle;rounded=0;orthogonalLoop=1;jettySize=auto;html=1;exitX=1;exitY=0.5;exitDx=0;exitDy=0;" parent="1" source="W3dB_EEzSe2LfcszyW_G-4" target="W3dB_EEzSe2LfcszyW_G-10" edge="1">
          <mxGeometry relative="1" as="geometry"/>
        </mxCell>
        <mxCell id="W3dB_EEzSe2LfcszyW_G-4" value="Tab 2 Pencarian Berdasarkan Golongan" style="rounded=0;whiteSpace=wrap;html=1;" parent="1" vertex="1">
          <mxGeometry x="240" y="110" width="120" height="60" as="geometry"/>
        </mxCell>
        <mxCell id="W3dB_EEzSe2LfcszyW_G-8" style="edgeStyle=orthogonalEdgeStyle;rounded=0;orthogonalLoop=1;jettySize=auto;html=1;exitX=0.5;exitY=0;exitDx=0;exitDy=0;entryX=0.5;entryY=1;entryDx=0;entryDy=0;" parent="1" source="W3dB_EEzSe2LfcszyW_G-5" target="W3dB_EEzSe2LfcszyW_G-7" edge="1">
          <mxGeometry relative="1" as="geometry"/>
        </mxCell>
        <mxCell id="W3dB_EEzSe2LfcszyW_G-14" style="edgeStyle=orthogonalEdgeStyle;rounded=0;orthogonalLoop=1;jettySize=auto;html=1;exitX=1;exitY=0.5;exitDx=0;exitDy=0;" parent="1" source="W3dB_EEzSe2LfcszyW_G-5" target="W3dB_EEzSe2LfcszyW_G-9" edge="1">
          <mxGeometry relative="1" as="geometry"/>
        </mxCell>
        <mxCell id="W3dB_EEzSe2LfcszyW_G-5" value="NIP Ada?" style="rhombus;whiteSpace=wrap;html=1;" parent="1" vertex="1">
          <mxGeometry x="420" width="80" height="80" as="geometry"/>
        </mxCell>
        <mxCell id="W3dB_EEzSe2LfcszyW_G-7" value="Data Tidak Ditemukan" style="rounded=0;whiteSpace=wrap;html=1;" parent="1" vertex="1">
          <mxGeometry x="400" y="-80" width="120" height="60" as="geometry"/>
        </mxCell>
        <mxCell id="W3dB_EEzSe2LfcszyW_G-9" value="Tampilkan Pegawai" style="rounded=0;whiteSpace=wrap;html=1;" parent="1" vertex="1">
          <mxGeometry x="540" y="10" width="120" height="60" as="geometry"/>
        </mxCell>
        <mxCell id="W3dB_EEzSe2LfcszyW_G-10" value="Tampilkan Tabel" style="rounded=0;whiteSpace=wrap;html=1;" parent="1" vertex="1">
          <mxGeometry x="400" y="110" width="120" height="60" as="geometry"/>
        </mxCell>
        <mxCell id="W3dB_EEzSe2LfcszyW_G-22" style="edgeStyle=orthogonalEdgeStyle;rounded=0;orthogonalLoop=1;jettySize=auto;html=1;exitX=0.5;exitY=1;exitDx=0;exitDy=0;entryX=0.5;entryY=0;entryDx=0;entryDy=0;" parent="1" source="W3dB_EEzSe2LfcszyW_G-16" target="W3dB_EEzSe2LfcszyW_G-18" edge="1">
          <mxGeometry relative="1" as="geometry"/>
        </mxCell>
        <mxCell id="W3dB_EEzSe2LfcszyW_G-16" value="User Name &amp;amp; PW" style="shape=parallelogram;perimeter=parallelogramPerimeter;whiteSpace=wrap;html=1;" parent="1" vertex="1">
          <mxGeometry x="40" y="210" width="120" height="60" as="geometry"/>
        </mxCell>
        <mxCell id="W3dB_EEzSe2LfcszyW_G-20" style="edgeStyle=orthogonalEdgeStyle;rounded=0;orthogonalLoop=1;jettySize=auto;html=1;exitX=0;exitY=0.5;exitDx=0;exitDy=0;" parent="1" source="W3dB_EEzSe2LfcszyW_G-18" target="W3dB_EEzSe2LfcszyW_G-19" edge="1">
          <mxGeometry relative="1" as="geometry"/>
        </mxCell>
        <mxCell id="W3dB_EEzSe2LfcszyW_G-38" style="edgeStyle=orthogonalEdgeStyle;rounded=0;orthogonalLoop=1;jettySize=auto;html=1;exitX=1;exitY=0.5;exitDx=0;exitDy=0;entryX=0;entryY=0.5;entryDx=0;entryDy=0;" parent="1" source="W3dB_EEzSe2LfcszyW_G-18" target="W3dB_EEzSe2LfcszyW_G-26" edge="1">
          <mxGeometry relative="1" as="geometry"/>
        </mxCell>
        <mxCell id="W3dB_EEzSe2LfcszyW_G-39" style="edgeStyle=orthogonalEdgeStyle;rounded=0;orthogonalLoop=1;jettySize=auto;html=1;exitX=1;exitY=0.5;exitDx=0;exitDy=0;entryX=0;entryY=0.5;entryDx=0;entryDy=0;" parent="1" source="W3dB_EEzSe2LfcszyW_G-18" target="W3dB_EEzSe2LfcszyW_G-28" edge="1">
          <mxGeometry relative="1" as="geometry"/>
        </mxCell>
        <mxCell id="W3dB_EEzSe2LfcszyW_G-18" value="Benar?" style="rhombus;whiteSpace=wrap;html=1;" parent="1" vertex="1">
          <mxGeometry x="60" y="300" width="80" height="80" as="geometry"/>
        </mxCell>
        <mxCell id="W3dB_EEzSe2LfcszyW_G-21" style="edgeStyle=orthogonalEdgeStyle;rounded=0;orthogonalLoop=1;jettySize=auto;html=1;exitX=0.5;exitY=0;exitDx=0;exitDy=0;entryX=0;entryY=0.5;entryDx=0;entryDy=0;" parent="1" source="W3dB_EEzSe2LfcszyW_G-19" target="W3dB_EEzSe2LfcszyW_G-16" edge="1">
          <mxGeometry relative="1" as="geometry">
            <Array as="points">
              <mxPoint x="-50" y="240"/>
            </Array>
          </mxGeometry>
        </mxCell>
        <mxCell id="W3dB_EEzSe2LfcszyW_G-19" value="Username/PW salah" style="shape=parallelogram;perimeter=parallelogramPerimeter;whiteSpace=wrap;html=1;" parent="1" vertex="1">
          <mxGeometry x="-110" y="310" width="120" height="60" as="geometry"/>
        </mxCell>
        <mxCell id="W3dB_EEzSe2LfcszyW_G-23" value="&lt;h1&gt;Catatan&lt;/h1&gt;&lt;p&gt;Dalam mode user, Textbox dilock &amp;amp; Tombol edit, delete tidak ada.&lt;/p&gt;" style="text;html=1;strokeColor=none;fillColor=none;spacing=5;spacingTop=-20;whiteSpace=wrap;overflow=hidden;rounded=0;" parent="1" vertex="1">
          <mxGeometry x="540" y="80" width="190" height="80" as="geometry"/>
        </mxCell>
        <mxCell id="W3dB_EEzSe2LfcszyW_G-25" style="edgeStyle=orthogonalEdgeStyle;rounded=0;orthogonalLoop=1;jettySize=auto;html=1;exitX=1;exitY=0.5;exitDx=0;exitDy=0;entryX=0;entryY=0.5;entryDx=0;entryDy=0;" parent="1" source="W3dB_EEzSe2LfcszyW_G-26" target="W3dB_EEzSe2LfcszyW_G-31" edge="1">
          <mxGeometry relative="1" as="geometry"/>
        </mxCell>
        <mxCell id="W3dB_EEzSe2LfcszyW_G-26" value="Tab 1 Masukkan NIP" style="rounded=0;whiteSpace=wrap;html=1;" parent="1" vertex="1">
          <mxGeometry x="240" y="310" width="120" height="60" as="geometry"/>
        </mxCell>
        <mxCell id="W3dB_EEzSe2LfcszyW_G-27" style="edgeStyle=orthogonalEdgeStyle;rounded=0;orthogonalLoop=1;jettySize=auto;html=1;exitX=1;exitY=0.5;exitDx=0;exitDy=0;" parent="1" source="W3dB_EEzSe2LfcszyW_G-28" target="W3dB_EEzSe2LfcszyW_G-34" edge="1">
          <mxGeometry relative="1" as="geometry"/>
        </mxCell>
        <mxCell id="W3dB_EEzSe2LfcszyW_G-28" value="Tab 2 Pencarian Berdasarkan Golongan" style="rounded=0;whiteSpace=wrap;html=1;" parent="1" vertex="1">
          <mxGeometry x="240" y="410" width="120" height="60" as="geometry"/>
        </mxCell>
        <mxCell id="W3dB_EEzSe2LfcszyW_G-29" style="edgeStyle=orthogonalEdgeStyle;rounded=0;orthogonalLoop=1;jettySize=auto;html=1;exitX=0.5;exitY=0;exitDx=0;exitDy=0;entryX=0.5;entryY=1;entryDx=0;entryDy=0;" parent="1" source="W3dB_EEzSe2LfcszyW_G-31" target="W3dB_EEzSe2LfcszyW_G-32" edge="1">
          <mxGeometry relative="1" as="geometry"/>
        </mxCell>
        <mxCell id="W3dB_EEzSe2LfcszyW_G-30" style="edgeStyle=orthogonalEdgeStyle;rounded=0;orthogonalLoop=1;jettySize=auto;html=1;exitX=1;exitY=0.5;exitDx=0;exitDy=0;" parent="1" source="W3dB_EEzSe2LfcszyW_G-31" target="W3dB_EEzSe2LfcszyW_G-33" edge="1">
          <mxGeometry relative="1" as="geometry"/>
        </mxCell>
        <mxCell id="W3dB_EEzSe2LfcszyW_G-31" value="NIP Ada?" style="rhombus;whiteSpace=wrap;html=1;" parent="1" vertex="1">
          <mxGeometry x="420" y="300" width="80" height="80" as="geometry"/>
        </mxCell>
        <mxCell id="W3dB_EEzSe2LfcszyW_G-32" value="Data Tidak Ditemukan" style="rounded=0;whiteSpace=wrap;html=1;" parent="1" vertex="1">
          <mxGeometry x="400" y="220" width="120" height="60" as="geometry"/>
        </mxCell>
        <mxCell id="W3dB_EEzSe2LfcszyW_G-33" value="Tampilkan Pegawai" style="rounded=0;whiteSpace=wrap;html=1;" parent="1" vertex="1">
          <mxGeometry x="540" y="310" width="120" height="60" as="geometry"/>
        </mxCell>
        <mxCell id="W3dB_EEzSe2LfcszyW_G-34" value="Tampilkan Tabel" style="rounded=0;whiteSpace=wrap;html=1;" parent="1" vertex="1">
          <mxGeometry x="400" y="410" width="120" height="60" as="geometry"/>
        </mxCell>
        <mxCell id="W3dB_EEzSe2LfcszyW_G-35" value="&lt;h1&gt;Catatan&lt;/h1&gt;&lt;p&gt;Dalam mode admin, Textbox diunlock &amp;amp; Tombol edit, delete muncul.&lt;/p&gt;" style="text;html=1;strokeColor=none;fillColor=none;spacing=5;spacingTop=-20;whiteSpace=wrap;overflow=hidden;rounded=0;" parent="1" vertex="1">
          <mxGeometry x="540" y="380" width="190" height="80" as="geometry"/>
        </mxCell>
        <mxCell id="XTJIn6ejqTolkgEIAv3m-2" value="" style="rounded=0;whiteSpace=wrap;html=1;" vertex="1" parent="1">
          <mxGeometry x="-850" y="-1" width="620" height="371" as="geometry"/>
        </mxCell>
        <mxCell id="XTJIn6ejqTolkgEIAv3m-4" value="Deperin" style="rounded=0;whiteSpace=wrap;html=1;" vertex="1" parent="1">
          <mxGeometry x="-810" y="20" width="530" height="60" as="geometry"/>
        </mxCell>
        <mxCell id="XTJIn6ejqTolkgEIAv3m-5" value="Login User" style="rounded=0;whiteSpace=wrap;html=1;" vertex="1" parent="1">
          <mxGeometry x="-400" y="190" width="120" height="60" as="geometry"/>
        </mxCell>
        <mxCell id="XTJIn6ejqTolkgEIAv3m-6" value="Login Admin" style="rounded=0;whiteSpace=wrap;html=1;" vertex="1" parent="1">
          <mxGeometry x="-400" y="280" width="120" height="60" as="geometry"/>
        </mxCell>
        <mxCell id="XTJIn6ejqTolkgEIAv3m-7" value="" style="rounded=0;whiteSpace=wrap;html=1;" vertex="1" parent="1">
          <mxGeometry x="-850" y="410" width="620" height="371" as="geometry"/>
        </mxCell>
        <mxCell id="XTJIn6ejqTolkgEIAv3m-10" value="" style="rounded=0;whiteSpace=wrap;html=1;" vertex="1" parent="1">
          <mxGeometry x="-830" y="450" width="580" height="310" as="geometry"/>
        </mxCell>
        <mxCell id="XTJIn6ejqTolkgEIAv3m-11" value="" style="rounded=0;whiteSpace=wrap;html=1;" vertex="1" parent="1">
          <mxGeometry x="-810" y="536" width="280" height="54" as="geometry"/>
        </mxCell>
        <mxCell id="XTJIn6ejqTolkgEIAv3m-12" value="Masukkan NIP" style="text;html=1;strokeColor=none;fillColor=none;align=center;verticalAlign=middle;whiteSpace=wrap;rounded=0;" vertex="1" parent="1">
          <mxGeometry x="-810" y="500" width="200" height="20" as="geometry"/>
        </mxCell>
        <mxCell id="XTJIn6ejqTolkgEIAv3m-13" value="Data ditemukan : Ringkas / Data Tidak ditemukan" style="text;html=1;strokeColor=none;fillColor=none;align=center;verticalAlign=middle;whiteSpace=wrap;rounded=0;" vertex="1" parent="1">
          <mxGeometry x="-810" y="605" width="280" height="20" as="geometry"/>
        </mxCell>
        <mxCell id="XTJIn6ejqTolkgEIAv3m-14" value="Lihat lebih lanjut" style="rounded=0;whiteSpace=wrap;html=1;" vertex="1" parent="1">
          <mxGeometry x="-400" y="690" width="120" height="60" as="geometry"/>
        </mxCell>
        <mxCell id="XTJIn6ejqTolkgEIAv3m-16" value="" style="rounded=0;whiteSpace=wrap;html=1;" vertex="1" parent="1">
          <mxGeometry x="-850" y="820" width="620" height="371" as="geometry"/>
        </mxCell>
        <mxCell id="XTJIn6ejqTolkgEIAv3m-17" value="Foto" style="rounded=0;whiteSpace=wrap;html=1;" vertex="1" parent="1">
          <mxGeometry x="-810" y="890" width="120" height="130" as="geometry"/>
        </mxCell>
        <mxCell id="XTJIn6ejqTolkgEIAv3m-18" value="Data Diri" style="rounded=0;whiteSpace=wrap;html=1;" vertex="1" parent="1">
          <mxGeometry x="-660" y="890" width="390" height="180" as="geometry"/>
        </mxCell>
        <mxCell id="XTJIn6ejqTolkgEIAv3m-19" value="Berkas" style="rounded=0;whiteSpace=wrap;html=1;" vertex="1" parent="1">
          <mxGeometry x="-660" y="1080" width="390" height="100" as="geometry"/>
        </mxCell>
        <mxCell id="XTJIn6ejqTolkgEIAv3m-20" value="Salin" style="rounded=0;whiteSpace=wrap;html=1;" vertex="1" parent="1">
          <mxGeometry x="-810" y="1120" width="120" height="60" as="geometry"/>
        </mxCell>
      </root>
    </mxGraphModel>
  </diagram>
</mxfile>
